<svg id="Layer_1" data-name="Layer 1" xmlns="http://www.w3.org/2000/svg" viewBox="0 0 558.782 243.684">
  <defs>
    <style>
      .cls-1, .cls-2 {
        fill: #1a1818;
      }

      .cls-2, .cls-3 {
        stroke: #1a1818;
        stroke-miterlimit: 10;
      }

      .cls-2 {
        stroke-width: 6.3px;
      }

      .cls-3 {
        fill: none;
        stroke-width: 19.421px;
      }

      .cls-4 {
        fill: #fff;
      }
    </style>
  </defs>
  <title>VD LOGO</title>
  <g>
    <polygon class="cls-1" points="166.47 93.765 162.163 218.823 148.862 93.902 0 243.684 115.976 76.902 3.724 134.126 106.369 64.298 166.47 93.765"/>
    <polygon class="cls-1" points="106.369 64.298 3.724 134.126 115.976 76.902 0 243.684 148.862 93.902 162.163 218.823 166.47 93.765 106.369 64.298 106.369 64.298"/>
  </g>
  <g>
    <polygon class="cls-1" points="392.312 93.765 396.619 218.823 409.92 93.902 558.782 243.684 442.805 76.902 555.058 134.126 452.413 64.298 392.312 93.765"/>
    <polygon class="cls-1" points="452.413 64.298 392.312 93.765 396.619 218.823 409.92 93.902 558.782 243.684 442.806 76.902 555.058 134.126 452.413 64.298 452.413 64.298"/>
  </g>
  <g>
    <ellipse class="cls-2" cx="277.685" cy="95.099" rx="41.474" ry="33.694"/>
    <path class="cls-3" d="M530.422,408.388c-187.616,150.609-321.873,0-321.873,0s146.306-129.094,321.873,0Z" transform="translate(-90.461 -341.302)"/>
  </g>
  <g>
    <path class="cls-4" d="M263.645,440.283q1.393.714,2.658,1.411c1.229.678,2.167,1.206,2.81,1.6a.454.454,0,0,1,.18.205.35.35,0,0,1,.025.253q-.5,1.761-1.218,3.985t-1.088,3.344c-.251.747-.7,2.066-1.333,3.963q.155-.207.78-1.066l.823-1.135.761-1.05q.561-.775.83-1.132t.772-1.045q.5-.688.842-1.131l.788-1.033q.45-.59.864-1.116c.277-.35.68-1.005.832-1.042.4-.095,1.733.789,2.317,1.076q1.341.657,3.111,1.57a.268.268,0,0,1,.147.15.245.245,0,0,1-.01.2q-.049.1-.554.815a164.073,164.073,0,0,1-11,13.917c-1.037-.457-2.406-1.112-4.1-1.985q-2.19-1.13-4.336-2.375a.44.44,0,0,1-.19-.2.4.4,0,0,1-.033-.268c.9-3.652,1.777-6.9,2.615-9.757S262.684,442.858,263.645,440.283Z" transform="translate(-90.461 -341.302)"/>
    <path class="cls-4" d="M275.709,456.911q1.813-3.927,4-8.359,1.442.588,2.636,1.118c.821.365,1.834.835,3.042,1.4a.325.325,0,0,1,.174.175.291.291,0,0,1,.006.237q-2.146,5.4-3.369,8.3-1.685,3.983-3.741,8.48-1.581-.594-2.883-1.17c-.9-.394-2-.91-3.3-1.56a.365.365,0,0,1-.188-.189.279.279,0,0,1-.007-.241Q274.385,459.77,275.709,456.911Z" transform="translate(-90.461 -341.302)"/>
    <path class="cls-4" d="M283.838,460.459a14.079,14.079,0,0,1,2.016-3.5,8.369,8.369,0,0,1,2.5-2.148,6.89,6.89,0,0,1,2.854-.822,8.1,8.1,0,0,1,3.151.424,16.3,16.3,0,0,1,2.582,1.161,9.771,9.771,0,0,1,1.93,1.381,5.951,5.951,0,0,1,1.294,1.7,6.71,6.71,0,0,1,.625,2.088,9.267,9.267,0,0,1-.036,2.564,18.629,18.629,0,0,1-.747,3.1,13.269,13.269,0,0,1-1.757,3.639,7.676,7.676,0,0,1-2.437,2.277,6.975,6.975,0,0,1-2.985.892,8.79,8.79,0,0,1-3.418-.449,16.573,16.573,0,0,1-2.8-1.259,10.291,10.291,0,0,1-2.063-1.5,6.067,6.067,0,0,1-1.333-1.8,6.2,6.2,0,0,1-.559-2.146,8.65,8.65,0,0,1,.2-2.56A18.047,18.047,0,0,1,283.838,460.459Zm6.608,2.608a17.434,17.434,0,0,0-.571,1.749,7.362,7.362,0,0,0-.226,1.189,1.683,1.683,0,0,0,.082.752,1.024,1.024,0,0,0,.3.44,1.719,1.719,0,0,0,.47.248,1.638,1.638,0,0,0,.51.113.983.983,0,0,0,.495-.149,1.676,1.676,0,0,0,.534-.526,7.735,7.735,0,0,0,.582-1.058q.325-.688.691-1.705.3-.843.485-1.5a7,7,0,0,0,.228-1.1,4.483,4.483,0,0,0,.026-.759,1,1,0,0,0-.158-.505,1.256,1.256,0,0,0-.287-.306,1.608,1.608,0,0,0-.385-.2,1.648,1.648,0,0,0-.411-.1.946.946,0,0,0-.39.057,1.036,1.036,0,0,0-.418.3,4.474,4.474,0,0,0-.446.608,8.113,8.113,0,0,0-.517.994Q290.764,462.221,290.446,463.067Z" transform="translate(-90.461 -341.302)"/>
    <path class="cls-4" d="M301.678,466.952q1.3-4.125,2.907-8.8,1.488.395,2.725.764c.851.255,1.9.588,3.16.991a.32.32,0,0,1,.193.151.292.292,0,0,1,.035.234q-1.445,5.627-2.291,8.662-.554,1.978-1.106,3.853l.141.039c2.011.562,3.692,1.025,5.038,1.415a.35.35,0,0,1,.211.149.289.289,0,0,1,.046.235c-.293,1.21-.492,2.09-.62,2.6q-.3,1.176-.59,2.194c-1.089-.228-2.767-.633-5.027-1.258-.559-.155-1.745-.5-3.55-1.067s-3-.98-3.585-1.173a.369.369,0,0,1-.208-.162.28.28,0,0,1-.036-.238Q300.729,469.957,301.678,466.952Z" transform="translate(-90.461 -341.302)"/>
    <path class="cls-4" d="M314.987,470.685q1.036-4.2,2.345-8.967c1,.2,3.17.711,6.527,1.424,2.375.5,4.206.876,5.488,1.159a.316.316,0,0,1,.205.132.3.3,0,0,1,.056.23c-.214,1.227-.355,2.118-.449,2.634q-.218,1.192-.44,2.228c-.92-.126-2.642-.422-5.155-.945q-.678-.141-1.225-.267-.24,1.038-.365,1.581c1.938.426,3.244.713,3.887.851a.343.343,0,0,1,.211.136.293.293,0,0,1,.057.231c-.151.823-.284,1.594-.418,2.287q-.181.933-.416,2.02c-1.729-.335-2.593-.511-4.317-.881-.069.354-.174.879-.312,1.576l.4.086c2.733.58,4.71.972,5.925,1.237a.346.346,0,0,1,.218.134.289.289,0,0,1,.062.231c-.213,1.227-.351,2.118-.445,2.634q-.218,1.193-.443,2.228c-1.1-.154-3.07-.493-5.905-1.088-.566-.119-1.767-.387-3.6-.837s-3.048-.786-3.638-.94a.37.37,0,0,1-.216-.148.281.281,0,0,1-.051-.235Q314.228,473.743,314.987,470.685Z" transform="translate(-90.461 -341.302)"/>
    <path class="cls-4" d="M329.911,473.816q.74-4.261,1.714-9.109,1.514.191,2.623.366c.629.1,1.539.267,2.734.489.152.028.254.147.305.357.863,3.321,1.32,4.98,2.285,8.294.373-3.266.56-4.9.937-8.164q1.528.127,2.793.272c.827.1,1.807.227,2.94.388a.347.347,0,0,1,.217.119.283.283,0,0,1,.071.221q-.449,5.792-.755,8.928-.426,4.3-1.053,9.208-1.447-.074-2.7-.215c-.989-.11-2.051-.266-3.164-.445a.423.423,0,0,1-.342-.354c-1.031-3.32-1.521-4.983-2.451-8.313-.421,3.26-.631,4.89-1.048,8.151-1.1-.11-2.056-.232-2.861-.358-.909-.142-2.028-.345-3.352-.619a.393.393,0,0,1-.229-.137.275.275,0,0,1-.063-.226Q329.367,476.92,329.911,473.816Z" transform="translate(-90.461 -341.302)"/>
    <path class="cls-4" d="M347.778,469.217q.115-1.238.249-2.335c1.02.048,3.483.26,7.4.483,3.095.176,5.3.261,6.6.341a.314.314,0,0,1,.222.1.3.3,0,0,1,.091.219c-.017,1.153-.017,2.039-.031,2.626q-.03,1.258-.087,2.315c-.356.007-1.68,0-3.971-.077q-.038,1.668-.134,3.96-.182,4.321-.53,9.253c-1.1,0-2.121-.029-3.05-.081-.957-.054-2.145-.149-3.562-.3a.356.356,0,0,1-.236-.11.281.281,0,0,1-.089-.223q.286-5.8.523-8.944.106-1.424.328-3.979-1.881-.178-3.626-.384a.322.322,0,0,1-.22-.113.293.293,0,0,1-.078-.224C347.674,470.572,347.731,469.719,347.778,469.217Z" transform="translate(-90.461 -341.302)"/>
    <path class="cls-4" d="M373.625,476.948q-.045-1.544-.1-4.478t-.1-4.478a54.574,54.574,0,0,1,6.215-.8,15.318,15.318,0,0,1,3.014.087,8.144,8.144,0,0,1,2.505.766,6.118,6.118,0,0,1,2,1.581,8.6,8.6,0,0,1,1.411,2.579,15.456,15.456,0,0,1,.793,3.712,19.506,19.506,0,0,1,.108,2.353,12.466,12.466,0,0,1-.183,1.97,7.243,7.243,0,0,1-.48,1.614,6.314,6.314,0,0,1-.742,1.291,5.272,5.272,0,0,1-1.009,1.01,6.886,6.886,0,0,1-1.238.755,8.823,8.823,0,0,1-1.473.53,14.2,14.2,0,0,1-1.665.343q-.848.123-1.867.185-.348.021-.753.032l-.71.019c-.2.006-.48.007-.83,0l-.759-.006c-.157,0-.449-.008-.876-.023l-.8-.03c-.107,0-.415-.015-.92-.036s-.8-.037-.872-.037a.375.375,0,0,1-.246-.085.278.278,0,0,1-.111-.213q-.042-1.429-.159-4.253T373.625,476.948Zm6.614-.291q.109,1.835.3,4.067l.578-.035a1.648,1.648,0,0,0,.434-.078,1.206,1.206,0,0,0,.366-.213,1.019,1.019,0,0,0,.295-.441,3.884,3.884,0,0,0,.179-.74,7.734,7.734,0,0,0,.075-1.127q0-.677-.058-1.579a18.145,18.145,0,0,0-.2-1.82,7.8,7.8,0,0,0-.28-1.177,1.749,1.749,0,0,0-.374-.656,1.016,1.016,0,0,0-.431-.285,1.57,1.57,0,0,0-.508-.038l-.549.033Q380.149,475.131,380.239,476.658Z" transform="translate(-90.461 -341.302)"/>
    <path class="cls-4" d="M391.128,475.336q-.169-1.535-.434-4.257t-.435-4.256q1.569-.413,3.344-.78c1.182-.246,2.219-.435,3.113-.562q1.159-.164,1.948-.25t1.715-.111a7.148,7.148,0,0,1,1.55.095,6.174,6.174,0,0,1,1.278.409,3,3,0,0,1,1.086.782,5.327,5.327,0,0,1,.784,1.264,7.538,7.538,0,0,1,.543,1.809,4.825,4.825,0,0,1-.392,3.067,6.055,6.055,0,0,1-2.24,2.412,3.461,3.461,0,0,1,2.088,1.151A31.5,31.5,0,0,1,409,482.464a30.514,30.514,0,0,1-3.578.808q-1.465.248-2.782.375a.74.74,0,0,1-.334-.042.432.432,0,0,1-.24-.181c-1.586-2.839-2.791-5.151-3.657-6.921l-.443.063q.136.854.574,3.5t.639,4q-1.409.254-3.03.462c-.976.124-2.159.25-3.55.369a.361.361,0,0,1-.256-.061.282.282,0,0,1-.124-.207q-.156-1.42-.539-4.579T391.128,475.336Zm6.293-2.53.559-.079a2.039,2.039,0,0,0,1.206-.547,1.155,1.155,0,0,0,.333-1.03,1.649,1.649,0,0,0-.492-1.063,1.524,1.524,0,0,0-1.2-.194q-.421.061-.775.133Q397.282,471.82,397.421,472.806Z" transform="translate(-90.461 -341.302)"/>
    <path class="cls-4" d="M408.533,473.121q-.816-4.247-1.621-9.126c.99-.238,3.169-.678,6.518-1.434,2.37-.535,4.194-.965,5.48-1.244a.318.318,0,0,1,.242.034.3.3,0,0,1,.148.186c.319,1.2.564,2.072.694,2.581q.3,1.174.532,2.208c-.892.271-2.585.724-5.09,1.3q-.676.155-1.225.27.216,1.044.33,1.588c1.939-.423,3.249-.71,3.892-.853a.344.344,0,0,1,.249.035.293.293,0,0,1,.149.186c.207.81.409,1.567.577,2.252q.226.923.467,2.009c-1.715.42-2.575.621-4.3,1.006q.128.525.376,1.562l.4-.09c2.727-.616,4.693-1.089,5.911-1.357a.348.348,0,0,1,.255.031.288.288,0,0,1,.154.184c.32,1.2.567,2.071.7,2.579q.3,1.175.53,2.209c-1.066.321-3.006.839-5.832,1.484-.564.129-1.769.387-3.618.743s-3.093.56-3.692.666a.369.369,0,0,1-.258-.045.281.281,0,0,1-.144-.192Q409.124,476.217,408.533,473.121Z" transform="translate(-90.461 -341.302)"/>
    <path class="cls-4" d="M424.5,478.756c-.021-.079-.048-.405-.081-.976q-.193-2.576-.328-5.356c-.092-1.853-.2-4.157-.328-6.909s-.241-4.554-.3-5.41c1.025-.334,2.442-.759,4.247-1.3,1.682-.507,3.153-.949,4.42-1.313a.389.389,0,0,1,.258.009.353.353,0,0,1,.2.167c.584,1.017,1.554,2.674,2.936,4.959s2.6,4.3,3.655,6.057,2.022,3.426,2.9,5.015q-1.554.614-2.886,1.054c-1.422.473-2.526.8-3.308,1a.476.476,0,0,1-.285-.012.355.355,0,0,1-.2-.159q-.911-1.577-1.53-2.758c-1.229.382-1.845.568-3.078.932q.2,1.663.312,3.449c-1.068.36-2,.646-2.78.864-.937.26-2.1.554-3.487.867a.294.294,0,0,1-.221-.018A.236.236,0,0,1,424.5,478.756Zm5.71-9.021c.734-.219,1.1-.33,1.834-.555q-.568-1.15-1.581-3.292c-.675-1.428-1.15-2.44-1.432-3.032q.207,1.253.618,3.584T430.2,469.735Z" transform="translate(-90.461 -341.302)"/>
    <path class="cls-4" d="M440.19,464.536q-1.442-4.077-2.968-8.781,1.429-.58,2.494-.976c.853-.315,1.746-.619,2.656-.926a.415.415,0,0,1,.445.16c2.665,2.362,4.024,3.524,6.8,5.808.376-3.572.533-5.354.786-8.909a.689.689,0,0,1,.248-.436q.906-.477,2.069-1,1.254-.561,2.782-1.193a.362.362,0,0,1,.253-.011.284.284,0,0,1,.175.153q2.574,5.208,3.911,8.061,1.831,3.918,3.795,8.456-1.36.712-2.481,1.216c-.676.306-1.687.735-3.037,1.271a.367.367,0,0,1-.265.014.285.285,0,0,1-.184-.156c-.233-.517-.614-1.3-1.1-2.346s-.93-1.99-1.324-2.844-.763-1.674-1.109-2.461c-.291,3.258-.462,4.891-.856,8.162l-.335.2-.35.076c-2.448-1.959-3.652-2.953-6.021-4.971,1.256,3.111,1.885,4.666,3.145,7.776-1.029.45-1.932.815-2.705,1.1-.8.3-1.887.676-3.262,1.116a.364.364,0,0,1-.264,0,.28.28,0,0,1-.172-.168Q441.237,467.509,440.19,464.536Z" transform="translate(-90.461 -341.302)"/>
    <path class="cls-4" d="M465.618,463.8c-.649-2.165-.978-3.246-1.643-5.405a21.97,21.97,0,0,0,6.019-1.815,2.386,2.386,0,0,0,1.077-.942.936.936,0,0,0,.07-.889.58.58,0,0,0-.193-.217.7.7,0,0,0-.332-.1c-.14-.011-.271-.015-.39-.013a3.239,3.239,0,0,0-.514.069c-.223.044-.408.082-.553.114s-.363.082-.647.148c-.516.121-.921.211-1.212.27s-.712.121-1.264.184a6.694,6.694,0,0,1-1.373.042,9.385,9.385,0,0,1-1.3-.238,3.883,3.883,0,0,1-1.3-.565,6.27,6.27,0,0,1-1.117-1.026,6.689,6.689,0,0,1-1-1.539,7.657,7.657,0,0,1-.623-1.783,5.264,5.264,0,0,1-.11-1.482,3.019,3.019,0,0,1,.41-1.264,6.034,6.034,0,0,1,.772-1.069,6.789,6.789,0,0,1,1.154-.962q.735-.5,1.395-.884t1.636-.891a42.987,42.987,0,0,1,5.922-2.455c.751,1.935,1.124,2.9,1.862,4.845a19.494,19.494,0,0,0-3.018.642,15.675,15.675,0,0,0-2.935,1.153,2.824,2.824,0,0,0-.992.773.708.708,0,0,0-.109.781.47.47,0,0,0,.177.188.723.723,0,0,0,.332.081c.143.007.277.009.4.005a4.042,4.042,0,0,0,.537-.066q.351-.06.578-.11l.684-.15a28.442,28.442,0,0,1,3.274-.585,6.244,6.244,0,0,1,4.765,1.145,5.337,5.337,0,0,1,1.191,1.455,7.064,7.064,0,0,1,.731,1.753,5.035,5.035,0,0,1,.162,1.6,4.469,4.469,0,0,1-.368,1.465,5.926,5.926,0,0,1-.805,1.334,8.732,8.732,0,0,1-1.2,1.217,14.2,14.2,0,0,1-1.5,1.107q-.784.5-1.747,1.006A61.676,61.676,0,0,1,465.618,463.8Z" transform="translate(-90.461 -341.302)"/>
  </g>
</svg>
